<?xml version="1.0" encoding="UTF-8"?>
<svg width="1200pt" height="1200pt" version="1.1" viewBox="0 0 1200 1200" xmlns="http://www.w3.org/2000/svg">
 <path transform="scale(50)" d="m9 13c-0.7 0.7-2.3 1.8-2.5 2-0.7 0.7-0.7 1.8 0 2.5s1.8 0.7 2.5 0c0.1-0.1 1.3-1.9 2-2.5" fill="none" stroke="#000" stroke-linejoin="round" stroke-miterlimit="10" stroke-width="2"/>
 <path transform="scale(50)" d="m7 11c-0.9 0.9-2.4 2-2.7 2.3-1.8 1.8-1.8 4.6 0 6.4s4.6 1.8 6.4 0c0.3-0.3 1.2-1.5 2.3-2.7" fill="none" stroke="#000" stroke-linejoin="round" stroke-miterlimit="10" stroke-width="2"/>
 <path transform="scale(50)" d="m15 11c0.7-0.7 2.3-1.8 2.5-2 0.7-0.7 0.7-1.8 0-2.5s-1.8-0.7-2.5 0c-0.1 0.1-1.3 1.9-2 2.5" fill="none" stroke="#000" stroke-linejoin="round" stroke-miterlimit="10" stroke-width="2"/>
 <path transform="scale(50)" d="m17 13c0.9-0.9 2.4-2 2.7-2.3 1.8-1.8 1.8-4.6 0-6.4s-4.6-1.8-6.4 0c-0.3 0.3-1.1 1.5-2.3 2.7" fill="none" stroke="#000" stroke-linejoin="round" stroke-miterlimit="10" stroke-width="2"/>
 <path transform="scale(50)" d="m6.1 9.9 8 8" fill="none" stroke="#000" stroke-linejoin="round" stroke-miterlimit="10" stroke-width="2"/>
 <path transform="scale(50)" d="m8.4 7.6 6.2 6.2c3.4 3.4 3.4 5.7 3.4 8.2" fill="none" stroke="#000" stroke-linejoin="round" stroke-miterlimit="10" stroke-width="2"/>
</svg>
