<?xml version="1.0" encoding="UTF-8"?>
<svg width="1200pt" height="1200pt" version="1.1" viewBox="0 0 1200 1200" xmlns="http://www.w3.org/2000/svg">
 <path d="m620 615c-25-80-40-70-105-55-45 15-75 20-50 105 0 0 35 135-50 250-25 35-15 90 20 115 10 15 25 20 35 20 30 5 60-10 75-35 140-200 80-390 75-400zm-145 395c-25-5-40-25-35-50s25-40 50-40c25 5 40 25 35 50s-25 45-50 40z"/>
 <path d="m725 100h-35c-270 0-490 220-490 490v25c0 55 100 35 150 5 30-20 50-50 55-85 0-10-105 15-105 15 0-5 120-65 120-75 45-100 150-175 270-175h35c40 0 75 35 75 75v410c0 65-50 115-115 115h-25c-15 45-40 95-70 145-10 15-25 30-40 35 50 15 100 20 150 20 170-5 300-145 300-315v-410c0-150-125-275-275-275z"/>
</svg>
