<?xml version="1.0" encoding="UTF-8"?>
<svg width="1200pt" height="1200pt" version="1.1" viewBox="0 0 1200 1200" xmlns="http://www.w3.org/2000/svg">
 <path transform="scale(50)" d="m18 5.5c0 1.3807-2.6863 2.5-6 2.5s-6-1.1193-6-2.5 2.6863-2.5 6-2.5 6 1.1193 6 2.5z" fill="none" stroke="#000" stroke-miterlimit="10" stroke-width="2"/>
 <path d="m910 215c-30 0-25 40-25 40-5 25-25 115-285 115s-280-95-285-115c0-20-5-40-25-40-25 0-40 35-40 55v120c0 75 95 125 215 145 25 5 35-100 35-100s75 105 100 105 100-105 100-105 10 100 40 95c120-20 210-70 210-145v-115c0-20-15-55-40-55z"/>
 <path transform="matrix(-41.86 27.35 -27.35 -41.86 2067 1154.8)" d="m20.7 17.7c-1e-6 0.71798-1.567 1.2999-3.5001 1.3-1.933 9e-6 -3.5-0.58207-3.4999-1.3 1e-6 -0.71798 1.567-1.3 3.4999-1.3 1.933-7.4e-5 3.5 0.58201 3.5 1.3z" fill="none" stroke="#000" stroke-miterlimit="10" stroke-width="2"/>
 <path d="m680 975c15-10 25 10 25 10 10 10 70 25 185-50s125-135 120-150c-10-10-10-25 0-30 10-10 25-5 35 5l40 65c35 55-40 145-135 205s-210 95-245 40l-40-65c0-10 0-25 15-30z"/>
 <path transform="scale(50)" d="m16.2 16.3s-0.3-3.3-3.2-3.3" fill="none" stroke="#000" stroke-miterlimit="10" stroke-width="2"/>
 <path transform="matrix(41.86 27.35 -27.35 41.86 539.2 -40.98)" d="m10.3 17.7c1e-6 0.71798-1.5671 1.3-3.5 1.3s-3.5-0.58207-3.5-1.3c4.1e-5 -0.71792 1.5671-1.3 3.5-1.3s3.5 0.58202 3.5 1.3z" fill="none" stroke="#000" stroke-miterlimit="10" stroke-width="2"/>
 <path d="m520 975c-15-10-25 10-25 10-10 10-70 25-185-50s-125-135-120-150c10-10 10-25 0-30-15-10-30-5-40 5l-40 65c-35 55 40 145 135 205s210 95 245 40l40-65c5-10 5-25-10-30z"/>
 <path transform="scale(50)" d="m7.8 16.3s0.3-3.3 3.2-3.3" fill="none" stroke="#000" stroke-miterlimit="10" stroke-width="2"/>
 <path d="m500 375h200v375h-200z"/>
</svg>
